<?xml version="1.0" encoding="utf-8"?>
<!-- Generator: Adobe Illustrator 24.3.0, SVG Export Plug-In . SVG Version: 6.00 Build 0)  -->
<svg version="1.1" id="Calque_1" xmlns="http://www.w3.org/2000/svg" xmlns:xlink="http://www.w3.org/1999/xlink" x="0px" y="0px"
	 width="60.69px" height="89.48px" viewBox="0 0 60.69 89.48" style="enable-background:new 0 0 60.69 89.48;" xml:space="preserve"
	>
<style type="text/css">
	.st0{fill:#FFFFFF;}
</style>
<path class="st0" d="M26.88,62.53c-0.31,0-0.63-0.02-0.95-0.08c-8.36-1.34-15.6-5.85-20.4-12.7C-4.34,35.68-0.64,16,13.79,5.89
	c14.42-10.11,34.18-6.88,44.05,7.2c1.89,2.69,1.23,6.4-1.46,8.29c-2.69,1.89-6.4,1.23-8.29-1.46c-6.1-8.71-18.43-10.63-27.48-4.28
	c-9.05,6.34-11.45,18.59-5.35,27.29c2.94,4.19,7.39,6.95,12.54,7.78c3.24,0.52,5.45,3.57,4.93,6.82
	C32.28,60.45,29.75,62.53,26.88,62.53z"/>
<path class="st0" d="M28.36,89.48c-1.11,0-2.22-0.06-3.34-0.17c-8.42-0.88-15.9-4.98-21.07-11.55c-2.03-2.58-1.59-6.32,1-8.35
	c2.58-2.03,6.32-1.59,8.35,1c3.16,4.02,7.76,6.53,12.96,7.07c5.26,0.55,10.48-0.98,14.72-4.32c8.69-6.83,10.4-19.19,3.83-27.55
	c-3.16-4.02-7.76-6.53-12.96-7.07c-3.27-0.34-5.64-3.27-5.3-6.53c0.34-3.27,3.26-5.64,6.53-5.3c8.42,0.88,15.9,4.98,21.07,11.55
	c10.63,13.51,8.02,33.36-5.82,44.25C42.54,87.06,35.56,89.48,28.36,89.48z"/>
</svg>
